<?xml version="1.0" encoding="utf-8"?>
<!-- Generator: Adobe Illustrator 19.0.0, SVG Export Plug-In . SVG Version: 6.00 Build 0)  -->
<svg version="1.1" id="Layer_1" xmlns="http://www.w3.org/2000/svg" xmlns:xlink="http://www.w3.org/1999/xlink" x="0px" y="0px"
	 viewBox="0 0 50 50" style="enable-background:new 0 0 50 50;" xml:space="preserve">
<style type="text/css">
	.st0{fill:#2C3E50;}
</style>
<g>
	<path class="st0" d="M15.4,20.4c-0.7,0.2-1.4-0.3-1.5-0.9c-0.2-0.7,0.2-1.4,0.9-1.6s1.4,0.3,1.5,1C16.5,19.5,16,20.2,15.4,20.4
		L15.4,20.4z M26.5,12.4c-1.5,0-2.7,1.2-2.7,2.7s1.2,2.7,2.7,2.7s2.7-1.2,2.7-2.7S27.9,12.4,26.5,12.4L26.5,12.4z M43.4,27.5
		l-0.3-0.9l-0.3-0.9l-0.3-0.8l-0.3-0.8l-0.3-0.8l-0.3-0.8l-0.2-0.8l-0.2-0.8v-0.4l0.2-0.4l0.2-0.4v-0.4l-0.2-0.7l-0.2-0.7L41,17.2
		l-0.2-0.7l-0.2-0.7l-0.2-0.7l-0.3-0.7l-0.3-0.7l-0.3-0.6l-0.7-1.3l1-0.6l-0.4-0.6L39,10l-0.4-0.6L38.3,9L38,8.5l-0.4-0.4l-0.4-0.4
		l-0.4-0.4l-0.4-0.4l0.9-0.4l-0.5-0.3l-0.5-0.3l-0.5-0.3l-0.5-0.3L34.8,5l-0.5-0.2l-0.5-0.2l-0.6-0.2l-0.5-0.2L32.2,4l-0.7-0.2
		l-0.7-0.2l-0.7-0.2l-0.7-0.2l-0.7-0.1L28.2,3l-0.7-0.1l-0.7-0.1h-0.7h-0.7h-0.7H24h-0.7h-0.7l-0.7,0.1L21.4,3l-0.7,0.1L20,3.2
		l-0.7,0.1l-0.7,0.1l-0.7,0.2l-0.7,0.2L16.5,4l-0.7,0.2l-0.7,0.3l-0.6,0.3l-0.7,0.3l-0.6,0.3l-0.6,0.4L12,6.3l-0.6,0.4l-0.6,0.4
		l-0.5,0.4L9.9,8.1L9.4,8.5L9,9.1L8.6,9.6l-0.4,0.5l-0.4,0.6l-0.4,0.6l-0.3,0.6l-0.3,0.6l-0.3,0.6l-0.3,0.6L6,14.4L5.9,15l-0.2,0.7
		l-0.1,0.6l-0.2,1.4L5.3,19v1.3l0.1,1.3l0.2,1.3L6,24.2l0.4,1.2l3.3,5.3c5.6,5.7,5.3,11.5,5.3,11.5v1.1v3.5h19l0.1-0.4v-1.1v-1.1
		l0.1-2.5l0.1-1.3l0.1-0.3l0.1-0.2l0.1-0.2l0.2-0.2l0.2-0.1l0.3-0.1l0.3-0.1h0.3h0.4h0.4H37h0.4h0.4h0.4h0.3h0.4h0.4h-0.9h0.4h0.4
		h0.5H40l0.3-0.1l0.3-0.1l0.3-0.1l0.3-0.2l0.2-0.2l0.2-0.2l0.2-0.2l0.1-0.5l-0.1-0.5l-0.1-0.5v-0.5l0.1-0.2l0.1-0.2l0.1-0.2l0.1-0.2
		l0.1-0.2l0.1-0.2l0.1-0.2v-0.2v-0.2v-0.2H42l-0.1-0.2l-0.2-0.2l-0.2-0.2l-0.2-0.2l-0.2-0.2l0.3-0.1l0.2-0.2l0.2-0.2l0.2-0.2
		l0.2-0.2l0.1-0.2v-0.2v-0.2L42.1,31l-0.2-0.7l-0.1-0.7V29l0.4-0.1l0.3-0.2l0.3-0.2l0.2-0.2l0.2-0.2l0.1-0.2l0.1-0.2L43.4,27.5z
		 M18.7,20.9l-0.5,0.8c0,0.1-1.2-0.2-1.2-0.2l-0.4,0.3L16.4,23l-0.9,0.2c-0.1,0-0.7-1-0.7-1l-0.5-0.1c0,0-0.9,0.7-1,0.7l-0.7-0.5
		c-0.1,0,0.2-1.2,0.2-1.2l-0.3-0.4l-1.2-0.2l-0.2-0.9c0-0.1,0.9-0.7,0.9-0.7l0.1-0.5c0,0-0.7-0.9-0.7-1l0.4-0.8l1.2,0.2l0.4-0.3
		l0.2-1.2l0.8-0.2c0.1,0,0.7,1,0.7,1l0.5,0.1c0,0,0.9-0.7,1-0.7l0.7,0.5c0.1,0-0.2,1.2-0.2,1.2l0.3,0.4l1.2,0.2l0.2,0.9
		c0,0.1-0.9,0.7-0.9,0.7l0.1,0.5C18,19.9,18.7,20.8,18.7,20.9L18.7,20.9z M34.9,16L34.9,16c0,0.1-2.3,1-2.3,1l-0.4,1
		c0,0,1,2.2,0.9,2.3l-1.3,1.3c-0.1,0.1-2.3-0.9-2.3-0.9l-1,0.4c0,0-0.9,2.3-1.1,2.3h-1.9c-0.1,0-1-2.3-1-2.3l-1-0.4
		c0,0-2.3,1-2.4,0.9l-1.3-1.3c-0.1-0.1,1-2.3,1-2.3l-0.4-1c0,0-2.3-0.9-2.3-1v-1.8c0-0.1,2.3-1,2.3-1l0.4-1c0,0-1-2.2-0.9-2.3
		l1.3-1.3c0.1-0.1,2.3,0.9,2.3,0.9l1-0.4c0,0,0.9-2.3,1-2.3h1.9c0.1,0,1,2.3,1,2.3l1,0.4c0,0,2.3-1,2.4-0.9l1.3,1.3
		c0.1,0.1-1,2.3-1,2.3l0.4,1c0,0,2.3,0.9,2.3,1L34.9,16L34.9,16z"/>
</g>
</svg>
