<?xml version="1.0" encoding="utf-8"?>
<!-- Generator: Adobe Illustrator 19.0.0, SVG Export Plug-In . SVG Version: 6.00 Build 0)  -->
<svg version="1.1" id="Layer_1" xmlns="http://www.w3.org/2000/svg" xmlns:xlink="http://www.w3.org/1999/xlink" x="0px" y="0px"
	 viewBox="0 0 50 50" style="enable-background:new 0 0 50 50;" xml:space="preserve">
<style type="text/css">
	.st0{fill:#2C3E50;}
</style>
<g>
	<g>
		<path class="st0" d="M37.9,26.5c-0.1-6,4.9-8.9,5.1-9c-2.8-4.1-7.1-4.6-8.7-4.7c-3.7-0.4-7.2,2.2-9.1,2.2c-1.9,0-4.8-2.1-7.8-2.1
			c-4,0.1-7.7,2.3-9.8,5.9c-4.2,7.3-1.1,18,3,23.9c2,2.9,4.4,6.1,7.5,6c3-0.1,4.1-1.9,7.8-1.9c3.6,0,4.6,1.9,7.8,1.9
			c3.2-0.1,5.3-2.9,7.3-5.8c2.3-3.3,3.2-6.6,3.3-6.7C44.2,36,38,33.7,37.9,26.5L37.9,26.5z M32,8.9c1.7-2,2.8-4.8,2.5-7.6
			c-2.4,0.1-5.3,1.6-7,3.6c-1.5,1.8-2.9,4.6-2.5,7.3C27.6,12.4,30.3,10.9,32,8.9L32,8.9z M32,8.9"/>
	</g>
</g>
</svg>
