<?xml version="1.0" encoding="utf-8"?>
<!-- Generator: Adobe Illustrator 19.0.0, SVG Export Plug-In . SVG Version: 6.00 Build 0)  -->
<svg version="1.1" id="Layer_1" xmlns="http://www.w3.org/2000/svg" xmlns:xlink="http://www.w3.org/1999/xlink" x="0px" y="0px"
	 viewBox="0 0 50 50" style="enable-background:new 0 0 50 50;" xml:space="preserve">
<style type="text/css">
	.st0{fill:none;}
	.st1{fill:#2C3E50;}
</style>
<g>
	<g>
		<g>
			<rect x="2" y="2" class="st0" width="44.9" height="47"/>
			<path class="st1" d="M2.2,7L2.2,7C2.2,7.1,2.2,7.1,2.2,7L2.2,7l12.1,11.5v30.3h32.3v-45H14.2v5.3L6.9,2l0,0
				C6.6,2,5.3,1.5,3.4,3.5C1.4,5.5,2.1,6.8,2.2,7L2.2,7z M35.6,35.1h6.9v9.7h-6.9V35.1z M35.6,16.9h6.9v17.4h-6.9V16.9z M35.6,7.8
				h1.1v8.3h-1.1V7.8z M39.3,7.8h1.1v8.3h-1.1V7.8z M42.5,16.1h-1.3V7.8h1.3V16.1z M38.5,16.1h-1V7.8h1V16.1z M34.8,16.1h-1V7.8h1
				V16.1z M31.9,7.8H33v8.3h-1.1V7.8z M18.2,7.8h12.9v8.3h-4.2v0.8h7.9v27.9h-5.3v-1.9h-1.6v1.9h-9.7V29.9h1.3v-1.6h-1.3v-5.9
				l0.7,0.7c0.2-0.9,0.8-2,1.6-2.9c1-1.1,2.1-1.9,3-2.2l-5.4-5.1L18.2,7.8L18.2,7.8z"/>
		</g>
	</g>
	<path class="st1" d="M20.9,20.4c-1.1,1.3-1.6,2.4-1.6,3c0,0.2,0.4,0.4,0.4,0.4l0,0l0.9,0.1l0.7,0.1l3.1,0.4l0,0
		c0-0.2,0.1-0.5,0.3-0.7c0.1-0.1,0.4-0.4,0.7-0.4l-0.9-3l-0.2-0.7l-0.2-0.8c0-0.2-0.2-0.4-0.3-0.4C23.4,18.3,22.1,19,20.9,20.4
		L20.9,20.4z M23.5,19.2l0.1,0.5l0.2,0.7l0.7,2.4c-0.2,0.1-0.3,0.2-0.3,0.3c-0.1,0.1-0.2,0.3-0.3,0.4l-2.4-0.3l-0.7-0.1L20.3,23
		c0.2-0.5,0.6-1.3,1.3-2.1C22.3,20,23.1,19.5,23.5,19.2L23.5,19.2z"/>
	<path class="st1" d="M25.1,24.4L25.1,24.4l0.7,0.6c0,0,0.2,0.1,0.4,0.1c0.1,0,0.2,0,0.3-0.1c0.2-0.2,0-0.6-0.1-0.6l-0.7-0.6
		c0,0,0,0-0.1,0l0,0c-0.1,0-0.2,0.1-0.3,0.2C25.1,24.1,25,24.3,25.1,24.4L25.1,24.4z"/>
	<path class="st1" d="M27.9,30.9h1.6v-2.6h-2.7v1.6h1.1V30.9z"/>
	<rect x="22" y="28.3" class="st1" width="2.3" height="1.6"/>
	<rect x="27.9" y="33.3" class="st1" width="1.6" height="2.3"/>
	<rect x="27.9" y="38.1" class="st1" width="1.6" height="2.3"/>
</g>
</svg>
